# xmcd
# 
# Track frame offsets:
#   300
#   15080
#   29163
#   45405
#   62010
#   83113
#   97950
#   114779
#   130631
#   145105
#   163425
#   176313
#   192059
#   206896
#   224994
# 
# Disc length: 3206 seconds
# 
# Revision: 1
# Processed by: cddbd v1.5.2PL0 Copyright (c) Steve Scherf et al.
# Submitted via: Synapstar 1.0 
# 
DISCID=cd0c820f
DTITLE=Various Artist - CB60436
DYEAR=1900
DGENRE=Country
TTITLE0=Jason Aldean - Crazy Town
TTITLE1=Little Big Town - Little White Church
TTITLE2=Rodney Atkins - Farmer's Daughter
TTITLE3=Gloriana - World Is Ours Tonight
TTITLE4=Jake Owen - Tell Me
TTITLE5=Kenny Chesney - This Is Our Moment
TTITLE6=Laura Bell Bundy - Giddy On Up
TTITLE7=Bucky Covington - A Fathers Love
TTITLE8=The Band Perry - Hip To My Heart
TTITLE9=Josh Thompson - Way Out Here
TTITLE10=Justin Moore - Backwoods
TTITLE11=Coldwater Jane - Bring On The Love
TTITLE12=Danny Gokey - My Best Days Are Ahead Of Me
TTITLE13=Miranda Lambert - House That Built Me
TTITLE14=Trailer Choir - Rollin' Through The Sunshine
EXTD=
EXTT0=
EXTT1=
EXTT2=
EXTT3=
EXTT4=
EXTT5=
EXTT6=
EXTT7=
EXTT8=
EXTT9=
EXTT10=
EXTT11=
EXTT12=
EXTT13=
EXTT14=
PLAYORDER=
